<mxfile host="65bd71144e">
    <diagram id="afJgA6YJ7kgfRQqBY9Ge" name="Page-1">
        <mxGraphModel dx="2417" dy="3933" grid="1" gridSize="10" guides="1" tooltips="1" connect="1" arrows="1" fold="1" page="1" pageScale="1" pageWidth="1654" pageHeight="2336" background="none" math="0" shadow="0">
            <root>
                <mxCell id="0"/>
                <mxCell id="1" parent="0"/>
                <mxCell id="26" style="edgeStyle=none;html=1;entryX=0.5;entryY=0;entryDx=0;entryDy=0;labelBackgroundColor=none;shadow=0;labelBorderColor=none;fillColor=#333333;" parent="1" source="4" target="10" edge="1">
                    <mxGeometry relative="1" as="geometry"/>
                </mxCell>
                <mxCell id="4" value="&lt;div style=&quot;color: rgb(204, 204, 204); font-family: Menlo, Monaco, &amp;quot;Courier New&amp;quot;, monospace; line-height: 18px;&quot;&gt;&lt;span style=&quot;color: #dcdcaa;&quot;&gt;fflush&lt;/span&gt;(&lt;span style=&quot;color: #569cd6;&quot;&gt;stdin&lt;/span&gt;);&lt;/div&gt;" style="rounded=1;whiteSpace=wrap;html=1;labelBackgroundColor=none;flipH=1;flipV=1;shadow=0;labelBorderColor=none;fillColor=#333333;" parent="1" vertex="1">
                    <mxGeometry x="570" y="-2060" width="120" height="60" as="geometry"/>
                </mxCell>
                <mxCell id="27" style="edgeStyle=none;html=1;entryX=0.5;entryY=0;entryDx=0;entryDy=0;labelBackgroundColor=none;shadow=0;labelBorderColor=none;fillColor=#333333;" parent="1" source="10" target="13" edge="1">
                    <mxGeometry relative="1" as="geometry"/>
                </mxCell>
                <mxCell id="10" value="&lt;div style=&quot;border-color: rgb(0, 0, 0); color: rgb(204, 204, 204); font-family: Menlo, Monaco, &amp;quot;Courier New&amp;quot;, monospace; font-size: 12px; font-style: normal; font-variant-ligatures: normal; font-variant-caps: normal; font-weight: 400; letter-spacing: normal; orphans: 2; text-align: center; text-indent: 0px; text-transform: none; widows: 2; word-spacing: 0px; -webkit-text-stroke-width: 0px; text-decoration-thickness: initial; text-decoration-style: initial; text-decoration-color: initial;&quot;&gt;&lt;span style=&quot;border-color: rgb(0, 0, 0); color: rgb(206, 145, 120);&quot;&gt;&amp;nbsp; &amp;nbsp;&quot;Enter the desired&amp;nbsp;&lt;/span&gt;&lt;/div&gt;&lt;div style=&quot;border-color: rgb(0, 0, 0); color: rgb(204, 204, 204); font-family: Menlo, Monaco, &amp;quot;Courier New&amp;quot;, monospace; font-size: 12px; font-style: normal; font-variant-ligatures: normal; font-variant-caps: normal; font-weight: 400; letter-spacing: normal; orphans: 2; text-align: center; text-indent: 0px; text-transform: none; widows: 2; word-spacing: 0px; -webkit-text-stroke-width: 0px; text-decoration-thickness: initial; text-decoration-style: initial; text-decoration-color: initial;&quot;&gt;&lt;span style=&quot;border-color: rgb(0, 0, 0); color: rgb(206, 145, 120);&quot;&gt;text height&amp;nbsp;&lt;/span&gt;&lt;/div&gt;&lt;div style=&quot;border-color: rgb(0, 0, 0); color: rgb(204, 204, 204); font-family: Menlo, Monaco, &amp;quot;Courier New&amp;quot;, monospace; font-size: 12px; font-style: normal; font-variant-ligatures: normal; font-variant-caps: normal; font-weight: 400; letter-spacing: normal; orphans: 2; text-align: center; text-indent: 0px; text-transform: none; widows: 2; word-spacing: 0px; -webkit-text-stroke-width: 0px; text-decoration-thickness: initial; text-decoration-style: initial; text-decoration-color: initial;&quot;&gt;&lt;span style=&quot;border-color: rgb(0, 0, 0); color: rgb(206, 145, 120);&quot;&gt;(4-10 mm): &quot;&lt;/span&gt;&lt;/div&gt;" style="shape=parallelogram;perimeter=parallelogramPerimeter;whiteSpace=wrap;html=1;fixedSize=1;labelBackgroundColor=none;flipH=1;flipV=1;shadow=0;labelBorderColor=none;fillColor=#333333;" parent="1" vertex="1">
                    <mxGeometry x="560" y="-1980" width="140" height="70" as="geometry"/>
                </mxCell>
                <mxCell id="15" style="edgeStyle=none;html=1;entryX=0.5;entryY=0;entryDx=0;entryDy=0;labelBackgroundColor=none;shadow=0;labelBorderColor=none;fillColor=#333333;" parent="1" source="13" target="14" edge="1">
                    <mxGeometry relative="1" as="geometry"/>
                </mxCell>
                <mxCell id="13" value="&lt;div style=&quot;border-color: rgb(0, 0, 0); color: rgb(204, 204, 204); font-family: Menlo, Monaco, &amp;quot;Courier New&amp;quot;, monospace; font-size: 12px; font-style: normal; font-variant-ligatures: normal; font-variant-caps: normal; font-weight: 400; letter-spacing: normal; orphans: 2; text-align: center; text-indent: 0px; text-transform: none; widows: 2; word-spacing: 0px; -webkit-text-stroke-width: 0px; text-decoration-thickness: initial; text-decoration-style: initial; text-decoration-color: initial;&quot;&gt;&lt;div style=&quot;line-height: 18px;&quot;&gt;&lt;span style=&quot;color: #dcdcaa;&quot;&gt;scanf&lt;/span&gt;(&lt;span style=&quot;color: #ce9178;&quot;&gt;&quot;&lt;/span&gt;&lt;span style=&quot;color: #9cdcfe;&quot;&gt;%lf&lt;/span&gt;&lt;span style=&quot;color: #ce9178;&quot;&gt;&quot;&lt;/span&gt;, &lt;span style=&quot;color: #d4d4d4;&quot;&gt;&amp;amp;&lt;/span&gt;&lt;span style=&quot;color: #9cdcfe;&quot;&gt;height&lt;/span&gt;)&lt;/div&gt;&lt;/div&gt;" style="shape=parallelogram;perimeter=parallelogramPerimeter;whiteSpace=wrap;html=1;fixedSize=1;labelBackgroundColor=none;flipH=1;flipV=1;shadow=0;labelBorderColor=none;fillColor=#333333;" parent="1" vertex="1">
                    <mxGeometry x="560" y="-1880" width="140" height="70" as="geometry"/>
                </mxCell>
                <mxCell id="21" value="No" style="edgeStyle=none;html=1;entryX=0;entryY=0.5;entryDx=0;entryDy=0;labelBackgroundColor=none;shadow=0;labelBorderColor=none;fillColor=#333333;" parent="1" source="14" target="17" edge="1">
                    <mxGeometry relative="1" as="geometry"/>
                </mxCell>
                <mxCell id="23" value="Yes" style="edgeStyle=none;html=1;entryX=0.5;entryY=0;entryDx=0;entryDy=0;labelBackgroundColor=none;shadow=0;labelBorderColor=none;fillColor=#333333;" parent="1" source="14" target="16" edge="1">
                    <mxGeometry relative="1" as="geometry"/>
                </mxCell>
                <mxCell id="14" value="&lt;div style=&quot;color: rgb(204, 204, 204); font-family: Menlo, Monaco, &amp;quot;Courier New&amp;quot;, monospace; font-weight: normal; font-size: 12px; line-height: 18px;&quot;&gt;&lt;div&gt;&lt;span style=&quot;color: #cccccc;&quot;&gt;&lt;/span&gt;&lt;span style=&quot;color: rgb(197, 134, 192);&quot;&gt;if(&lt;/span&gt;&lt;/div&gt;&lt;div&gt;&lt;span style=&quot;color: #9cdcfe;&quot;&gt;height&lt;/span&gt;&lt;span style=&quot;color: #cccccc;&quot;&gt; &lt;/span&gt;&lt;span style=&quot;color: #d4d4d4;&quot;&gt;&amp;lt;&lt;/span&gt;&lt;span style=&quot;color: #cccccc;&quot;&gt; &lt;/span&gt;&lt;span style=&quot;color: #569cd6;&quot;&gt;MINIMUM&lt;/span&gt;&lt;/div&gt;&lt;div&gt;&lt;span style=&quot;&quot;&gt;&amp;nbsp;&lt;/span&gt;&lt;span style=&quot;color: rgb(212, 212, 212);&quot;&gt;||&lt;/span&gt;&lt;span style=&quot;&quot;&gt; &lt;/span&gt;&lt;span style=&quot;color: rgb(156, 220, 254);&quot;&gt;height&lt;/span&gt;&lt;span style=&quot;&quot;&gt; &lt;/span&gt;&lt;span style=&quot;color: rgb(212, 212, 212);&quot;&gt;&amp;gt;&lt;/span&gt;&lt;span style=&quot;&quot;&gt; &lt;/span&gt;&lt;span style=&quot;color: rgb(86, 156, 214);&quot;&gt;MAXIMUM&lt;/span&gt;&lt;/div&gt;&lt;div&gt;&lt;span style=&quot;color: rgb(197, 134, 192);&quot;&gt;)&lt;/span&gt;&lt;/div&gt;&lt;/div&gt;" style="rhombus;whiteSpace=wrap;html=1;labelBackgroundColor=none;flipH=1;flipV=1;shadow=0;labelBorderColor=none;fillColor=#333333;" parent="1" vertex="1">
                    <mxGeometry x="540" y="-1780" width="180" height="164" as="geometry"/>
                </mxCell>
                <mxCell id="24" style="edgeStyle=none;html=1;entryX=0.5;entryY=1;entryDx=0;entryDy=0;entryPerimeter=0;labelBackgroundColor=none;shadow=0;labelBorderColor=none;fillColor=#333333;" parent="1" source="16" target="18" edge="1">
                    <mxGeometry relative="1" as="geometry"/>
                </mxCell>
                <mxCell id="16" value="&lt;div style=&quot;color: rgb(204, 204, 204); font-family: Menlo, Monaco, &amp;quot;Courier New&amp;quot;, monospace; line-height: 18px;&quot;&gt;&lt;div style=&quot;line-height: 18px;&quot;&gt;&lt;span style=&quot;color: #9cdcfe;&quot;&gt;scale&lt;/span&gt; &lt;span style=&quot;color: #d4d4d4;&quot;&gt;=&lt;/span&gt; &lt;span style=&quot;color: #9cdcfe;&quot;&gt;height&lt;/span&gt; &lt;span style=&quot;color: #d4d4d4;&quot;&gt;/&lt;/span&gt; &lt;span style=&quot;color: #569cd6;&quot;&gt;CHARACTER_SPACE&lt;/span&gt;&lt;/div&gt;&lt;/div&gt;" style="rounded=1;whiteSpace=wrap;html=1;labelBackgroundColor=none;flipH=1;flipV=1;shadow=0;labelBorderColor=none;fillColor=#333333;" parent="1" vertex="1">
                    <mxGeometry x="565" y="-1570" width="130" height="50" as="geometry"/>
                </mxCell>
                <mxCell id="22" style="edgeStyle=none;html=1;labelBackgroundColor=none;shadow=0;labelBorderColor=none;fillColor=#333333;" parent="1" source="17" edge="1">
                    <mxGeometry relative="1" as="geometry">
                        <mxPoint x="869" y="-1620" as="targetPoint"/>
                    </mxGeometry>
                </mxCell>
                <mxCell id="17" value="&lt;div style=&quot;color: rgb(204, 204, 204); font-family: Menlo, Monaco, &amp;quot;Courier New&amp;quot;, monospace; line-height: 18px;&quot;&gt;&lt;span style=&quot;color: #dcdcaa;&quot;&gt;ErrorHandler&lt;/span&gt;()&lt;/div&gt;" style="shape=process;whiteSpace=wrap;html=1;backgroundOutline=1;labelBackgroundColor=none;flipH=1;flipV=1;shadow=0;labelBorderColor=none;fillColor=#333333;" parent="1" vertex="1">
                    <mxGeometry x="794" y="-1727" width="150" height="58" as="geometry"/>
                </mxCell>
                <mxCell id="18" value="&lt;div style=&quot;color: rgb(204, 204, 204); font-family: Menlo, Monaco, &amp;quot;Courier New&amp;quot;, monospace; line-height: 18px;&quot;&gt;&lt;span style=&quot;color: #4fc1ff;&quot;&gt;SUCCESS&lt;/span&gt;&lt;/div&gt;" style="strokeWidth=2;html=1;shape=mxgraph.flowchart.terminator;whiteSpace=wrap;labelBackgroundColor=none;flipH=1;flipV=1;shadow=0;labelBorderColor=none;fillColor=#333333;" parent="1" vertex="1">
                    <mxGeometry x="575" y="-1490" width="110" height="50" as="geometry"/>
                </mxCell>
                <mxCell id="19" value="&lt;div style=&quot;color: rgb(204, 204, 204); font-family: Menlo, Monaco, &amp;quot;Courier New&amp;quot;, monospace; line-height: 18px;&quot;&gt;&lt;div style=&quot;line-height: 18px;&quot;&gt;&lt;span style=&quot;color: #4fc1ff;&quot;&gt;ERROR_INVALID_SCALE_INPUT&lt;/span&gt;&lt;/div&gt;&lt;/div&gt;" style="strokeWidth=2;html=1;shape=mxgraph.flowchart.terminator;whiteSpace=wrap;labelBackgroundColor=none;flipH=1;flipV=1;shadow=0;labelBorderColor=none;fillColor=#333333;" parent="1" vertex="1">
                    <mxGeometry x="754" y="-1630" width="230" height="60" as="geometry"/>
                </mxCell>
                <mxCell id="30" style="edgeStyle=none;html=1;entryX=0.5;entryY=0;entryDx=0;entryDy=0;labelBackgroundColor=none;shadow=0;labelBorderColor=none;fillColor=#333333;" parent="1" source="29" target="4" edge="1">
                    <mxGeometry relative="1" as="geometry"/>
                </mxCell>
                <mxCell id="29" value="&lt;span style=&quot;color: rgb(220, 220, 170); font-family: Menlo, Monaco, &amp;quot;Courier New&amp;quot;, monospace;&quot;&gt;GetUserScale()&lt;/span&gt;" style="strokeWidth=2;html=1;shape=mxgraph.flowchart.start_1;whiteSpace=wrap;labelBackgroundColor=none;flipH=1;flipV=1;shadow=0;labelBorderColor=none;fillColor=#333333;" parent="1" vertex="1">
                    <mxGeometry x="570" y="-2150" width="120" height="60" as="geometry"/>
                </mxCell>
                <mxCell id="32" style="edgeStyle=none;html=1;entryX=0.5;entryY=0;entryDx=0;entryDy=0;labelBackgroundColor=none;shadow=0;labelBorderColor=none;fillColor=#333333;" parent="1" source="33" target="35" edge="1">
                    <mxGeometry relative="1" as="geometry"/>
                </mxCell>
                <mxCell id="33" value="&lt;div style=&quot;color: rgb(204, 204, 204); font-family: Menlo, Monaco, &amp;quot;Courier New&amp;quot;, monospace; line-height: 18px;&quot;&gt;&lt;span style=&quot;color: #dcdcaa;&quot;&gt;fflush&lt;/span&gt;(&lt;span style=&quot;color: #569cd6;&quot;&gt;stdin&lt;/span&gt;);&lt;/div&gt;" style="rounded=1;whiteSpace=wrap;html=1;labelBackgroundColor=none;flipH=1;flipV=1;shadow=0;labelBorderColor=none;fillColor=#333333;" parent="1" vertex="1">
                    <mxGeometry x="1094" y="-2060" width="120" height="60" as="geometry"/>
                </mxCell>
                <mxCell id="34" style="edgeStyle=none;html=1;entryX=0.5;entryY=0;entryDx=0;entryDy=0;labelBackgroundColor=none;shadow=0;labelBorderColor=none;fillColor=#333333;" parent="1" source="35" target="37" edge="1">
                    <mxGeometry relative="1" as="geometry"/>
                </mxCell>
                <mxCell id="35" value="&lt;div style=&quot;border-color: rgb(0, 0, 0); color: rgb(204, 204, 204); font-family: Menlo, Monaco, &amp;quot;Courier New&amp;quot;, monospace; font-size: 12px; font-style: normal; font-variant-ligatures: normal; font-variant-caps: normal; font-weight: 400; letter-spacing: normal; orphans: 2; text-align: center; text-indent: 0px; text-transform: none; widows: 2; word-spacing: 0px; -webkit-text-stroke-width: 0px; text-decoration-thickness: initial; text-decoration-style: initial; text-decoration-color: initial;&quot;&gt;&lt;span style=&quot;border-color: rgb(0, 0, 0); color: rgb(206, 145, 120);&quot;&gt;&amp;nbsp; &amp;nbsp;&quot;&lt;/span&gt;&lt;span style=&quot;color: rgb(206, 145, 120);&quot;&gt;Enter file&amp;nbsp;&lt;/span&gt;&lt;/div&gt;&lt;div style=&quot;border-color: rgb(0, 0, 0); color: rgb(204, 204, 204); font-family: Menlo, Monaco, &amp;quot;Courier New&amp;quot;, monospace; font-size: 12px; font-style: normal; font-variant-ligatures: normal; font-variant-caps: normal; font-weight: 400; letter-spacing: normal; orphans: 2; text-align: center; text-indent: 0px; text-transform: none; widows: 2; word-spacing: 0px; -webkit-text-stroke-width: 0px; text-decoration-thickness: initial; text-decoration-style: initial; text-decoration-color: initial;&quot;&gt;&lt;span style=&quot;color: rgb(206, 145, 120);&quot;&gt;name to read:&amp;nbsp;&lt;/span&gt;&lt;span style=&quot;color: rgb(206, 145, 120);&quot;&gt;&quot;&lt;/span&gt;&lt;/div&gt;" style="shape=parallelogram;perimeter=parallelogramPerimeter;whiteSpace=wrap;html=1;fixedSize=1;labelBackgroundColor=none;flipH=1;flipV=1;shadow=0;labelBorderColor=none;fillColor=#333333;" parent="1" vertex="1">
                    <mxGeometry x="1084" y="-1980" width="140" height="70" as="geometry"/>
                </mxCell>
                <mxCell id="51" style="edgeStyle=none;html=1;entryX=0.5;entryY=0;entryDx=0;entryDy=0;labelBackgroundColor=none;shadow=0;labelBorderColor=none;fillColor=#333333;" parent="1" source="37" target="49" edge="1">
                    <mxGeometry relative="1" as="geometry"/>
                </mxCell>
                <mxCell id="37" value="&lt;div style=&quot;border-color: rgb(0, 0, 0); color: rgb(204, 204, 204); font-family: Menlo, Monaco, &amp;quot;Courier New&amp;quot;, monospace; font-size: 12px; font-style: normal; font-variant-ligatures: normal; font-variant-caps: normal; font-weight: 400; letter-spacing: normal; orphans: 2; text-align: center; text-indent: 0px; text-transform: none; widows: 2; word-spacing: 0px; -webkit-text-stroke-width: 0px; text-decoration-thickness: initial; text-decoration-style: initial; text-decoration-color: initial;&quot;&gt;&lt;div style=&quot;line-height: 18px;&quot;&gt;&lt;div style=&quot;line-height: 18px;&quot;&gt;&lt;span style=&quot;color: #dcdcaa;&quot;&gt;scanf&lt;/span&gt;(&lt;span style=&quot;color: #ce9178;&quot;&gt;&quot;&lt;/span&gt;&lt;span style=&quot;color: #9cdcfe;&quot;&gt;%s&lt;/span&gt;&lt;span style=&quot;color: #ce9178;&quot;&gt;&quot;&lt;/span&gt;, &lt;span style=&quot;color: #9cdcfe;&quot;&gt;filename&lt;/span&gt;);&lt;span style=&quot;color: #6a9955;&quot;&gt; &lt;/span&gt;&lt;/div&gt;&lt;/div&gt;&lt;/div&gt;" style="shape=parallelogram;perimeter=parallelogramPerimeter;whiteSpace=wrap;html=1;fixedSize=1;labelBackgroundColor=none;flipH=1;flipV=1;shadow=0;labelBorderColor=none;fillColor=#333333;" parent="1" vertex="1">
                    <mxGeometry x="1084" y="-1880" width="140" height="70" as="geometry"/>
                </mxCell>
                <mxCell id="38" value="No" style="edgeStyle=none;html=1;entryX=0;entryY=0.5;entryDx=0;entryDy=0;labelBackgroundColor=none;shadow=0;labelBorderColor=none;fillColor=#333333;" parent="1" source="40" target="44" edge="1">
                    <mxGeometry relative="1" as="geometry"/>
                </mxCell>
                <mxCell id="39" value="Yes" style="edgeStyle=none;html=1;entryX=0.5;entryY=1;entryDx=0;entryDy=0;labelBackgroundColor=none;entryPerimeter=0;shadow=0;labelBorderColor=none;fillColor=#333333;" parent="1" source="40" target="45" edge="1">
                    <mxGeometry relative="1" as="geometry">
                        <mxPoint x="1159" y="-1510" as="targetPoint"/>
                    </mxGeometry>
                </mxCell>
                <mxCell id="40" value="&lt;div style=&quot;color: rgb(204, 204, 204); font-family: Menlo, Monaco, &amp;quot;Courier New&amp;quot;, monospace; font-weight: normal; font-size: 12px; line-height: 18px;&quot;&gt;&lt;div&gt;&lt;span style=&quot;color: #cccccc;&quot;&gt;&lt;/span&gt;&lt;span style=&quot;color: rgb(197, 134, 192);&quot;&gt;if&lt;/span&gt;&lt;span style=&quot;color: rgb(197, 134, 192);&quot;&gt;(&lt;/span&gt;&lt;span style=&quot;color: rgb(212, 212, 212);&quot;&gt;!*&lt;/span&gt;&lt;span style=&quot;color: rgb(156, 220, 254);&quot;&gt;file&lt;/span&gt;&lt;span style=&quot;color: rgb(197, 134, 192);&quot;&gt;)&lt;/span&gt;&lt;/div&gt;&lt;/div&gt;" style="rhombus;whiteSpace=wrap;html=1;labelBackgroundColor=none;flipH=1;flipV=1;shadow=0;labelBorderColor=none;fillColor=#333333;" parent="1" vertex="1">
                    <mxGeometry x="1084" y="-1670" width="140" height="120" as="geometry"/>
                </mxCell>
                <mxCell id="43" style="edgeStyle=none;html=1;entryX=0.5;entryY=1;entryDx=0;entryDy=0;entryPerimeter=0;labelBackgroundColor=none;shadow=0;labelBorderColor=none;fillColor=#333333;" parent="1" source="44" target="46" edge="1">
                    <mxGeometry relative="1" as="geometry"/>
                </mxCell>
                <mxCell id="44" value="&lt;div style=&quot;color: rgb(204, 204, 204); font-family: Menlo, Monaco, &amp;quot;Courier New&amp;quot;, monospace; line-height: 18px;&quot;&gt;&lt;span style=&quot;color: #dcdcaa;&quot;&gt;ErrorHandler&lt;/span&gt;()&lt;/div&gt;" style="shape=process;whiteSpace=wrap;html=1;backgroundOutline=1;labelBackgroundColor=none;flipH=1;flipV=1;shadow=0;labelBorderColor=none;fillColor=#333333;" parent="1" vertex="1">
                    <mxGeometry x="1284" y="-1639" width="150" height="58" as="geometry"/>
                </mxCell>
                <mxCell id="45" value="&lt;div style=&quot;color: rgb(204, 204, 204); font-family: Menlo, Monaco, &amp;quot;Courier New&amp;quot;, monospace; line-height: 18px;&quot;&gt;&lt;span style=&quot;color: #4fc1ff;&quot;&gt;SUCCESS&lt;/span&gt;&lt;/div&gt;" style="strokeWidth=2;html=1;shape=mxgraph.flowchart.terminator;whiteSpace=wrap;labelBackgroundColor=none;flipH=1;flipV=1;shadow=0;labelBorderColor=none;fillColor=#333333;" parent="1" vertex="1">
                    <mxGeometry x="1099" y="-1480" width="110" height="50" as="geometry"/>
                </mxCell>
                <mxCell id="46" value="&lt;div style=&quot;color: rgb(204, 204, 204); font-family: Menlo, Monaco, &amp;quot;Courier New&amp;quot;, monospace; line-height: 18px;&quot;&gt;&lt;div style=&quot;line-height: 18px;&quot;&gt;&lt;div style=&quot;line-height: 18px;&quot;&gt;&lt;span style=&quot;color: #4fc1ff;&quot;&gt;ERROR_OPEN_FILE&lt;/span&gt;&lt;/div&gt;&lt;/div&gt;&lt;/div&gt;" style="strokeWidth=2;html=1;shape=mxgraph.flowchart.terminator;whiteSpace=wrap;labelBackgroundColor=none;flipH=1;flipV=1;shadow=0;labelBorderColor=none;fillColor=#333333;" parent="1" vertex="1">
                    <mxGeometry x="1284" y="-1520" width="150" height="60" as="geometry"/>
                </mxCell>
                <mxCell id="47" style="edgeStyle=none;html=1;entryX=0.5;entryY=0;entryDx=0;entryDy=0;labelBackgroundColor=none;shadow=0;labelBorderColor=none;fillColor=#333333;" parent="1" source="48" target="33" edge="1">
                    <mxGeometry relative="1" as="geometry"/>
                </mxCell>
                <mxCell id="48" value="&lt;span style=&quot;color: rgb(220, 220, 170); font-family: Menlo, Monaco, &amp;quot;Courier New&amp;quot;, monospace;&quot;&gt;GetUserFile&lt;/span&gt;&lt;span style=&quot;color: rgb(220, 220, 170); font-family: Menlo, Monaco, &amp;quot;Courier New&amp;quot;, monospace;&quot;&gt;()&lt;/span&gt;" style="strokeWidth=2;html=1;shape=mxgraph.flowchart.start_1;whiteSpace=wrap;labelBackgroundColor=none;flipH=1;flipV=1;shadow=0;labelBorderColor=none;fillColor=#333333;" parent="1" vertex="1">
                    <mxGeometry x="1094" y="-2150" width="120" height="60" as="geometry"/>
                </mxCell>
                <mxCell id="50" style="edgeStyle=none;html=1;labelBackgroundColor=none;shadow=0;labelBorderColor=none;fillColor=#333333;" parent="1" source="49" target="40" edge="1">
                    <mxGeometry relative="1" as="geometry"/>
                </mxCell>
                <mxCell id="49" value="&lt;div style=&quot;color: rgb(204, 204, 204); font-family: Menlo, Monaco, &amp;quot;Courier New&amp;quot;, monospace; line-height: 18px;&quot;&gt;&lt;div style=&quot;line-height: 18px;&quot;&gt;&lt;span style=&quot;color: #dcdcaa;&quot;&gt;fopen&lt;/span&gt;(&lt;span style=&quot;color: #9cdcfe;&quot;&gt;filename&lt;/span&gt;, &lt;span style=&quot;color: #ce9178;&quot;&gt;&quot;r&quot;&lt;/span&gt;);&lt;span style=&quot;color: #6a9955;&quot;&gt; &lt;/span&gt;&lt;/div&gt;&lt;/div&gt;" style="rounded=1;whiteSpace=wrap;html=1;labelBackgroundColor=none;flipH=1;flipV=1;shadow=0;labelBorderColor=none;fillColor=#333333;" parent="1" vertex="1">
                    <mxGeometry x="1094" y="-1780" width="120" height="60" as="geometry"/>
                </mxCell>
                <mxCell id="58" style="edgeStyle=none;html=1;entryX=0.5;entryY=0;entryDx=0;entryDy=0;labelBackgroundColor=none;shadow=0;labelBorderColor=none;fillColor=#333333;" parent="1" source="52" target="53" edge="1">
                    <mxGeometry relative="1" as="geometry"/>
                </mxCell>
                <mxCell id="52" value="&lt;font face=&quot;Menlo, Monaco, Courier New, monospace&quot; color=&quot;#dcdcaa&quot;&gt;main()&lt;/font&gt;" style="strokeWidth=2;html=1;shape=mxgraph.flowchart.start_1;whiteSpace=wrap;labelBackgroundColor=none;flipH=1;flipV=1;shadow=0;labelBorderColor=none;fillColor=#333333;" parent="1" vertex="1">
                    <mxGeometry x="87.5" y="-2290" width="120" height="60" as="geometry"/>
                </mxCell>
                <mxCell id="59" style="edgeStyle=none;html=1;labelBackgroundColor=none;shadow=0;labelBorderColor=none;fillColor=#333333;" parent="1" source="53" target="56" edge="1">
                    <mxGeometry relative="1" as="geometry"/>
                </mxCell>
                <mxCell id="53" value="&lt;div style=&quot;color: rgb(204, 204, 204); font-family: Menlo, Monaco, &amp;quot;Courier New&amp;quot;, monospace; line-height: 18px;&quot;&gt;&lt;div style=&quot;line-height: 18px;&quot;&gt;&lt;span style=&quot;color: #dcdcaa;&quot;&gt;fontDataConstructor()&lt;/span&gt;&lt;/div&gt;&lt;/div&gt;" style="shape=process;whiteSpace=wrap;html=1;backgroundOutline=1;labelBackgroundColor=none;flipH=1;flipV=1;shadow=0;labelBorderColor=none;fillColor=#333333;" parent="1" vertex="1">
                    <mxGeometry x="40" y="-2200" width="215" height="58" as="geometry"/>
                </mxCell>
                <mxCell id="61" value="no" style="edgeStyle=none;html=1;labelBackgroundColor=none;shadow=0;labelBorderColor=none;fillColor=#333333;" parent="1" source="54" target="55" edge="1">
                    <mxGeometry relative="1" as="geometry"/>
                </mxCell>
                <mxCell id="96" value="yes" style="edgeStyle=none;html=1;entryX=0.5;entryY=1;entryDx=0;entryDy=0;entryPerimeter=0;labelBackgroundColor=none;shadow=0;labelBorderColor=none;fillColor=#333333;" parent="1" source="54" target="89" edge="1">
                    <mxGeometry x="-0.9453" relative="1" as="geometry">
                        <Array as="points">
                            <mxPoint x="365" y="-1960"/>
                        </Array>
                        <mxPoint as="offset"/>
                    </mxGeometry>
                </mxCell>
                <mxCell id="54" value="&lt;div style=&quot;font-family: Menlo, Monaco, &amp;quot;Courier New&amp;quot;, monospace; font-weight: normal; font-size: 12px; line-height: 18px;&quot;&gt;&lt;span style=&quot;color: #cccccc;&quot;&gt;&lt;/span&gt;&lt;div style=&quot;line-height: 18px;&quot;&gt; &lt;span style=&quot;color: rgb(197, 134, 192);&quot;&gt;if(&lt;/span&gt;&lt;/div&gt;&lt;div style=&quot;line-height: 18px;&quot;&gt;&lt;span style=&quot;color: rgb(220, 220, 170);&quot;&gt;StartUpRobot&lt;/span&gt;&lt;font color=&quot;#cccccc&quot;&gt;()&lt;/font&gt;&lt;/div&gt;&lt;div style=&quot;line-height: 18px;&quot;&gt;&lt;font color=&quot;#cccccc&quot;&gt;&lt;/font&gt;&lt;span style=&quot;color: rgb(212, 212, 212);&quot;&gt;!=&lt;/span&gt; &lt;span style=&quot;color: rgb(79, 193, 255);&quot;&gt;SUCCESS&lt;/span&gt;&lt;/div&gt;&lt;div style=&quot;line-height: 18px;&quot;&gt;&lt;span style=&quot;color: rgb(197, 134, 192);&quot;&gt;)&lt;/span&gt;&lt;/div&gt;&lt;/div&gt;" style="rhombus;whiteSpace=wrap;html=1;labelBackgroundColor=none;flipH=1;flipV=1;shadow=0;labelBorderColor=none;fillColor=#333333;" parent="1" vertex="1">
                    <mxGeometry x="63.75" y="-2030" width="167.5" height="140" as="geometry"/>
                </mxCell>
                <mxCell id="62" style="edgeStyle=none;html=1;labelBackgroundColor=none;shadow=0;labelBorderColor=none;fillColor=#333333;" parent="1" source="55" target="57" edge="1">
                    <mxGeometry relative="1" as="geometry"/>
                </mxCell>
                <mxCell id="55" value="&lt;div style=&quot;font-family: Menlo, Monaco, &amp;quot;Courier New&amp;quot;, monospace; line-height: 18px;&quot;&gt;&lt;div style=&quot;line-height: 18px;&quot;&gt;&lt;span style=&quot;color: rgb(156, 220, 254);&quot;&gt;fontdata-&amp;gt;&lt;/span&gt;&lt;font color=&quot;#dcdcaa&quot;&gt;parse()&lt;/font&gt;&lt;/div&gt;&lt;/div&gt;" style="shape=process;whiteSpace=wrap;html=1;backgroundOutline=1;labelBackgroundColor=none;flipH=1;flipV=1;shadow=0;labelBorderColor=none;fillColor=#333333;" parent="1" vertex="1">
                    <mxGeometry x="40" y="-1847" width="215" height="58" as="geometry"/>
                </mxCell>
                <mxCell id="60" style="edgeStyle=none;html=1;entryX=0.5;entryY=0;entryDx=0;entryDy=0;labelBackgroundColor=none;shadow=0;labelBorderColor=none;fillColor=#333333;" parent="1" source="56" target="54" edge="1">
                    <mxGeometry relative="1" as="geometry"/>
                </mxCell>
                <mxCell id="56" value="&lt;div style=&quot;color: rgb(204, 204, 204); font-family: Menlo, Monaco, &amp;quot;Courier New&amp;quot;, monospace; line-height: 18px;&quot;&gt;&lt;div style=&quot;line-height: 18px;&quot;&gt;&lt;span style=&quot;color: rgb(220, 220, 170);&quot;&gt;StartUpRobot&lt;/span&gt;&lt;font style=&quot;&quot; color=&quot;#cccccc&quot;&gt;()&lt;/font&gt;&lt;br&gt;&lt;/div&gt;&lt;/div&gt;" style="shape=process;whiteSpace=wrap;html=1;backgroundOutline=1;labelBackgroundColor=none;flipH=1;flipV=1;shadow=0;labelBorderColor=none;fillColor=#333333;" parent="1" vertex="1">
                    <mxGeometry x="40" y="-2118" width="215" height="58" as="geometry"/>
                </mxCell>
                <mxCell id="64" value="no" style="edgeStyle=none;html=1;entryX=0.5;entryY=0;entryDx=0;entryDy=0;labelBackgroundColor=none;shadow=0;labelBorderColor=none;fillColor=#333333;" parent="1" source="57" target="63" edge="1">
                    <mxGeometry relative="1" as="geometry"/>
                </mxCell>
                <mxCell id="95" value="yes" style="edgeStyle=none;html=1;entryX=0.5;entryY=1;entryDx=0;entryDy=0;entryPerimeter=0;labelBackgroundColor=none;shadow=0;labelBorderColor=none;fillColor=#333333;" parent="1" source="57" target="89" edge="1">
                    <mxGeometry x="-0.9247" relative="1" as="geometry">
                        <Array as="points">
                            <mxPoint x="365" y="-1690"/>
                        </Array>
                        <mxPoint as="offset"/>
                    </mxGeometry>
                </mxCell>
                <mxCell id="57" value="&lt;div style=&quot;font-family: Menlo, Monaco, &amp;quot;Courier New&amp;quot;, monospace; font-weight: normal; font-size: 12px; line-height: 18px;&quot;&gt;&lt;span style=&quot;color: #cccccc;&quot;&gt;&lt;/span&gt;&lt;div style=&quot;line-height: 18px;&quot;&gt; &lt;span style=&quot;color: rgb(197, 134, 192);&quot;&gt;if(&lt;/span&gt;&lt;/div&gt;&lt;div style=&quot;line-height: 18px;&quot;&gt;&lt;span style=&quot;color: rgb(156, 220, 254);&quot;&gt;fontdata&lt;/span&gt;&lt;span style=&quot;color: rgb(156, 220, 254);&quot;&gt;-&amp;gt;&lt;/span&gt;&lt;font style=&quot;&quot; color=&quot;#dcdcaa&quot;&gt;parse()&lt;/font&gt;&lt;/div&gt;&lt;div style=&quot;line-height: 18px;&quot;&gt;&lt;span style=&quot;color: rgb(212, 212, 212);&quot;&gt;!=&lt;/span&gt; &lt;span style=&quot;color: rgb(79, 193, 255);&quot;&gt;SUCCESS&lt;/span&gt;&lt;/div&gt;&lt;div style=&quot;line-height: 18px;&quot;&gt;&lt;span style=&quot;color: rgb(197, 134, 192);&quot;&gt;)&lt;/span&gt;&lt;/div&gt;&lt;/div&gt;" style="rhombus;whiteSpace=wrap;html=1;labelBackgroundColor=none;flipH=1;flipV=1;shadow=0;labelBorderColor=none;fillColor=#333333;" parent="1" vertex="1">
                    <mxGeometry x="63.75" y="-1760" width="167.5" height="140" as="geometry"/>
                </mxCell>
                <mxCell id="67" style="edgeStyle=none;html=1;entryX=0.5;entryY=0;entryDx=0;entryDy=0;labelBackgroundColor=none;shadow=0;labelBorderColor=none;fillColor=#333333;" parent="1" source="63" target="65" edge="1">
                    <mxGeometry relative="1" as="geometry"/>
                </mxCell>
                <mxCell id="63" value="&lt;div style=&quot;font-family: Menlo, Monaco, &amp;quot;Courier New&amp;quot;, monospace; line-height: 18px;&quot;&gt;&lt;div style=&quot;line-height: 18px;&quot;&gt;&lt;div style=&quot;color: rgb(204, 204, 204); line-height: 18px;&quot;&gt;&lt;span style=&quot;color: #dcdcaa;&quot;&gt;GetUserScale()&lt;/span&gt;&lt;/div&gt;&lt;/div&gt;&lt;/div&gt;" style="shape=process;whiteSpace=wrap;html=1;backgroundOutline=1;labelBackgroundColor=none;flipH=1;flipV=1;shadow=0;labelBorderColor=none;fillColor=#333333;" parent="1" vertex="1">
                    <mxGeometry x="40" y="-1570" width="215" height="58" as="geometry"/>
                </mxCell>
                <mxCell id="68" value="yes" style="edgeStyle=none;html=1;entryX=1;entryY=0.5;entryDx=0;entryDy=0;labelBackgroundColor=none;shadow=0;labelBorderColor=none;fillColor=#333333;" parent="1" source="65" target="63" edge="1">
                    <mxGeometry relative="1" as="geometry">
                        <Array as="points">
                            <mxPoint x="305" y="-1410"/>
                            <mxPoint x="305" y="-1540"/>
                        </Array>
                    </mxGeometry>
                </mxCell>
                <mxCell id="70" value="no" style="edgeStyle=none;html=1;entryX=0.5;entryY=0;entryDx=0;entryDy=0;labelBackgroundColor=none;shadow=0;labelBorderColor=none;fillColor=#333333;" parent="1" source="65" target="69" edge="1">
                    <mxGeometry relative="1" as="geometry"/>
                </mxCell>
                <mxCell id="65" value="&lt;div style=&quot;font-family: Menlo, Monaco, &amp;quot;Courier New&amp;quot;, monospace; font-weight: normal; font-size: 12px; line-height: 18px;&quot;&gt;&lt;span style=&quot;color: #cccccc;&quot;&gt;&lt;/span&gt;&lt;div style=&quot;line-height: 18px;&quot;&gt; &lt;span style=&quot;color: rgb(197, 134, 192);&quot;&gt;if(&lt;/span&gt;&lt;/div&gt;&lt;div style=&quot;line-height: 18px;&quot;&gt;&lt;span style=&quot;color: rgb(220, 220, 170);&quot;&gt;GetUserScale()&lt;/span&gt;&lt;br&gt;&lt;/div&gt;&lt;div style=&quot;line-height: 18px;&quot;&gt;&lt;span style=&quot;color: rgb(212, 212, 212);&quot;&gt;!=&lt;/span&gt; &lt;span style=&quot;color: rgb(79, 193, 255);&quot;&gt;SUCCESS&lt;/span&gt;&lt;/div&gt;&lt;div style=&quot;line-height: 18px;&quot;&gt;&lt;span style=&quot;color: rgb(197, 134, 192);&quot;&gt;)&lt;/span&gt;&lt;/div&gt;&lt;/div&gt;" style="rhombus;whiteSpace=wrap;html=1;labelBackgroundColor=none;flipH=1;flipV=1;shadow=0;labelBorderColor=none;fillColor=#333333;" parent="1" vertex="1">
                    <mxGeometry x="63.75" y="-1480" width="167.5" height="140" as="geometry"/>
                </mxCell>
                <mxCell id="72" style="edgeStyle=none;html=1;entryX=0.5;entryY=0;entryDx=0;entryDy=0;labelBackgroundColor=none;shadow=0;labelBorderColor=none;fillColor=#333333;" parent="1" source="69" target="71" edge="1">
                    <mxGeometry relative="1" as="geometry"/>
                </mxCell>
                <mxCell id="69" value="&lt;div style=&quot;font-family: Menlo, Monaco, &amp;quot;Courier New&amp;quot;, monospace; line-height: 18px;&quot;&gt;&lt;div style=&quot;line-height: 18px;&quot;&gt;&lt;span style=&quot;color: rgb(156, 220, 254);&quot;&gt;fontdata-&amp;gt;&lt;/span&gt;&lt;font color=&quot;#dcdcaa&quot;&gt;scale()&lt;/font&gt;&lt;/div&gt;&lt;/div&gt;" style="shape=process;whiteSpace=wrap;html=1;backgroundOutline=1;labelBackgroundColor=none;flipH=1;flipV=1;shadow=0;labelBorderColor=none;fillColor=#333333;" parent="1" vertex="1">
                    <mxGeometry x="40" y="-1310" width="215" height="58" as="geometry"/>
                </mxCell>
                <mxCell id="76" value="no" style="edgeStyle=none;html=1;entryX=0.5;entryY=0;entryDx=0;entryDy=0;labelBackgroundColor=none;shadow=0;labelBorderColor=none;fillColor=#333333;" parent="1" source="71" target="73" edge="1">
                    <mxGeometry relative="1" as="geometry"/>
                </mxCell>
                <mxCell id="94" value="yes" style="edgeStyle=none;html=1;entryX=0.5;entryY=1;entryDx=0;entryDy=0;entryPerimeter=0;labelBackgroundColor=none;shadow=0;labelBorderColor=none;fillColor=#333333;" parent="1" source="71" target="89" edge="1">
                    <mxGeometry x="-0.9069" relative="1" as="geometry">
                        <Array as="points">
                            <mxPoint x="366" y="-1150"/>
                        </Array>
                        <mxPoint as="offset"/>
                    </mxGeometry>
                </mxCell>
                <mxCell id="71" value="&lt;div style=&quot;font-family: Menlo, Monaco, &amp;quot;Courier New&amp;quot;, monospace; font-weight: normal; font-size: 12px; line-height: 18px;&quot;&gt;&lt;span style=&quot;color: #cccccc;&quot;&gt;&lt;/span&gt;&lt;div style=&quot;line-height: 18px;&quot;&gt; &lt;span style=&quot;color: rgb(197, 134, 192);&quot;&gt;if(&lt;/span&gt;&lt;/div&gt;&lt;div style=&quot;line-height: 18px;&quot;&gt;&lt;span style=&quot;color: rgb(156, 220, 254);&quot;&gt;fontdata&lt;/span&gt;&lt;span style=&quot;color: rgb(156, 220, 254);&quot;&gt;-&amp;gt;&lt;/span&gt;&lt;font style=&quot;&quot; color=&quot;#dcdcaa&quot;&gt;scale()&lt;/font&gt;&lt;/div&gt;&lt;div style=&quot;line-height: 18px;&quot;&gt;&lt;span style=&quot;color: rgb(212, 212, 212);&quot;&gt;!=&lt;/span&gt; &lt;span style=&quot;color: rgb(79, 193, 255);&quot;&gt;SUCCESS&lt;/span&gt;&lt;/div&gt;&lt;div style=&quot;line-height: 18px;&quot;&gt;&lt;span style=&quot;color: rgb(197, 134, 192);&quot;&gt;)&lt;/span&gt;&lt;/div&gt;&lt;/div&gt;" style="rhombus;whiteSpace=wrap;html=1;labelBackgroundColor=none;flipH=1;flipV=1;shadow=0;labelBorderColor=none;fillColor=#333333;" parent="1" vertex="1">
                    <mxGeometry x="63.75" y="-1220" width="167.5" height="140" as="geometry"/>
                </mxCell>
                <mxCell id="77" style="edgeStyle=none;html=1;entryX=0.5;entryY=0;entryDx=0;entryDy=0;labelBackgroundColor=none;shadow=0;labelBorderColor=none;fillColor=#333333;" parent="1" source="73" target="74" edge="1">
                    <mxGeometry relative="1" as="geometry"/>
                </mxCell>
                <mxCell id="73" value="&lt;div style=&quot;font-family: Menlo, Monaco, &amp;quot;Courier New&amp;quot;, monospace; line-height: 18px;&quot;&gt;&lt;div style=&quot;line-height: 18px;&quot;&gt;&lt;div style=&quot;color: rgb(204, 204, 204); line-height: 18px;&quot;&gt;&lt;div style=&quot;line-height: 18px;&quot;&gt;&lt;span style=&quot;color: #dcdcaa;&quot;&gt;GetUserFile()&lt;/span&gt;&lt;/div&gt;&lt;/div&gt;&lt;/div&gt;&lt;/div&gt;" style="shape=process;whiteSpace=wrap;html=1;backgroundOutline=1;labelBackgroundColor=none;flipH=1;flipV=1;shadow=0;labelBorderColor=none;fillColor=#333333;" parent="1" vertex="1">
                    <mxGeometry x="40" y="-1040" width="215" height="58" as="geometry"/>
                </mxCell>
                <mxCell id="75" value="yes" style="edgeStyle=none;html=1;entryX=1;entryY=0.5;entryDx=0;entryDy=0;labelBackgroundColor=none;shadow=0;labelBorderColor=none;fillColor=#333333;" parent="1" source="74" target="73" edge="1">
                    <mxGeometry relative="1" as="geometry">
                        <Array as="points">
                            <mxPoint x="315" y="-880"/>
                            <mxPoint x="315" y="-1011"/>
                        </Array>
                    </mxGeometry>
                </mxCell>
                <mxCell id="81" value="no" style="edgeStyle=none;html=1;entryX=0.5;entryY=0;entryDx=0;entryDy=0;labelBackgroundColor=none;shadow=0;labelBorderColor=none;fillColor=#333333;" parent="1" source="74" target="78" edge="1">
                    <mxGeometry relative="1" as="geometry"/>
                </mxCell>
                <mxCell id="74" value="&lt;div style=&quot;font-family: Menlo, Monaco, &amp;quot;Courier New&amp;quot;, monospace; font-weight: normal; font-size: 12px; line-height: 18px;&quot;&gt;&lt;span style=&quot;color: #cccccc;&quot;&gt;&lt;/span&gt;&lt;div style=&quot;line-height: 18px;&quot;&gt; &lt;span style=&quot;color: rgb(197, 134, 192);&quot;&gt;if(&lt;/span&gt;&lt;/div&gt;&lt;div style=&quot;line-height: 18px;&quot;&gt;&lt;span style=&quot;color: rgb(220, 220, 170);&quot;&gt;GetUserFile()&lt;/span&gt;&lt;br&gt;&lt;/div&gt;&lt;div style=&quot;line-height: 18px;&quot;&gt;&lt;span style=&quot;color: rgb(212, 212, 212);&quot;&gt;!=&lt;/span&gt; &lt;span style=&quot;color: rgb(79, 193, 255);&quot;&gt;SUCCESS&lt;/span&gt;&lt;/div&gt;&lt;div style=&quot;line-height: 18px;&quot;&gt;&lt;span style=&quot;color: rgb(197, 134, 192);&quot;&gt;)&lt;/span&gt;&lt;/div&gt;&lt;/div&gt;" style="rhombus;whiteSpace=wrap;html=1;labelBackgroundColor=none;flipH=1;flipV=1;shadow=0;labelBorderColor=none;fillColor=#333333;" parent="1" vertex="1">
                    <mxGeometry x="63.75" y="-950" width="167.5" height="140" as="geometry"/>
                </mxCell>
                <mxCell id="82" style="edgeStyle=none;html=1;entryX=0.5;entryY=0;entryDx=0;entryDy=0;labelBackgroundColor=none;shadow=0;labelBorderColor=none;fillColor=#333333;" parent="1" source="78" target="79" edge="1">
                    <mxGeometry relative="1" as="geometry"/>
                </mxCell>
                <mxCell id="78" value="&lt;div style=&quot;font-family: Menlo, Monaco, &amp;quot;Courier New&amp;quot;, monospace; line-height: 18px;&quot;&gt;&lt;div style=&quot;line-height: 18px;&quot;&gt;&lt;div style=&quot;color: rgb(204, 204, 204); line-height: 18px;&quot;&gt;&lt;div style=&quot;line-height: 18px;&quot;&gt;&lt;span style=&quot;color: rgb(220, 220, 170);&quot;&gt;process_text_file&lt;/span&gt;&lt;span style=&quot;color: #dcdcaa;&quot;&gt;()&lt;/span&gt;&lt;/div&gt;&lt;/div&gt;&lt;/div&gt;&lt;/div&gt;" style="shape=process;whiteSpace=wrap;html=1;backgroundOutline=1;labelBackgroundColor=none;flipH=1;flipV=1;shadow=0;labelBorderColor=none;fillColor=#333333;" parent="1" vertex="1">
                    <mxGeometry x="40" y="-780" width="215" height="58" as="geometry"/>
                </mxCell>
                <mxCell id="83" value="no" style="edgeStyle=none;html=1;entryX=0.5;entryY=0;entryDx=0;entryDy=0;labelBackgroundColor=none;shadow=0;labelBorderColor=none;fillColor=#333333;" parent="1" source="79" target="80" edge="1">
                    <mxGeometry relative="1" as="geometry"/>
                </mxCell>
                <mxCell id="93" value="yes" style="edgeStyle=none;html=1;entryX=0.5;entryY=1;entryDx=0;entryDy=0;entryPerimeter=0;labelBackgroundColor=none;shadow=0;labelBorderColor=none;fillColor=#333333;" parent="1" source="79" target="89" edge="1">
                    <mxGeometry x="-0.8293" relative="1" as="geometry">
                        <Array as="points">
                            <mxPoint x="366" y="-615"/>
                        </Array>
                        <mxPoint as="offset"/>
                    </mxGeometry>
                </mxCell>
                <mxCell id="79" value="&lt;div style=&quot;font-family: Menlo, Monaco, &amp;quot;Courier New&amp;quot;, monospace; font-weight: normal; font-size: 12px; line-height: 18px;&quot;&gt;&lt;span style=&quot;color: #cccccc;&quot;&gt;&lt;/span&gt;&lt;div style=&quot;line-height: 18px;&quot;&gt; &lt;span style=&quot;color: rgb(197, 134, 192);&quot;&gt;if(&lt;/span&gt;&lt;/div&gt;&lt;div style=&quot;line-height: 18px;&quot;&gt;&lt;span style=&quot;color: rgb(220, 220, 170);&quot;&gt;process_text_file&lt;/span&gt;&lt;span style=&quot;color: rgb(220, 220, 170);&quot;&gt;()&lt;/span&gt;&lt;br&gt;&lt;/div&gt;&lt;div style=&quot;line-height: 18px;&quot;&gt;&lt;span style=&quot;color: rgb(212, 212, 212);&quot;&gt;!=&lt;/span&gt; &lt;span style=&quot;color: rgb(79, 193, 255);&quot;&gt;SUCCESS&lt;/span&gt;&lt;/div&gt;&lt;div style=&quot;line-height: 18px;&quot;&gt;&lt;span style=&quot;color: rgb(197, 134, 192);&quot;&gt;)&lt;/span&gt;&lt;/div&gt;&lt;/div&gt;" style="rhombus;whiteSpace=wrap;html=1;labelBackgroundColor=none;flipH=1;flipV=1;shadow=0;labelBorderColor=none;fillColor=#333333;" parent="1" vertex="1">
                    <mxGeometry x="51.879999999999995" y="-690" width="191.25" height="150" as="geometry"/>
                </mxCell>
                <mxCell id="85" style="edgeStyle=none;html=1;entryX=0.5;entryY=0;entryDx=0;entryDy=0;labelBackgroundColor=none;shadow=0;labelBorderColor=none;fillColor=#333333;" parent="1" source="80" target="84" edge="1">
                    <mxGeometry relative="1" as="geometry"/>
                </mxCell>
                <mxCell id="80" value="&lt;div style=&quot;color: rgb(204, 204, 204); font-family: Menlo, Monaco, &amp;quot;Courier New&amp;quot;, monospace; line-height: 18px;&quot;&gt;&lt;span style=&quot;color: rgb(220, 220, 170);&quot;&gt;fclose&lt;/span&gt;(&lt;span style=&quot;color: #569cd6;&quot;&gt;file&lt;/span&gt;);&lt;/div&gt;" style="rounded=1;whiteSpace=wrap;html=1;labelBackgroundColor=none;flipH=1;flipV=1;shadow=0;labelBorderColor=none;fillColor=#333333;" parent="1" vertex="1">
                    <mxGeometry x="87.5" y="-500" width="120" height="60" as="geometry"/>
                </mxCell>
                <mxCell id="91" style="edgeStyle=none;html=1;entryX=0.5;entryY=0;entryDx=0;entryDy=0;labelBackgroundColor=none;shadow=0;labelBorderColor=none;fillColor=#333333;" parent="1" source="84" target="87" edge="1">
                    <mxGeometry relative="1" as="geometry"/>
                </mxCell>
                <mxCell id="84" value="&lt;div style=&quot;font-family: Menlo, Monaco, &amp;quot;Courier New&amp;quot;, monospace; line-height: 18px;&quot;&gt;&lt;div style=&quot;line-height: 18px;&quot;&gt;&lt;span style=&quot;color: rgb(156, 220, 254);&quot;&gt;fontdata-&amp;gt;&lt;/span&gt;&lt;font color=&quot;#dcdcaa&quot;&gt;free()&lt;/font&gt;&lt;/div&gt;&lt;/div&gt;" style="shape=process;whiteSpace=wrap;html=1;backgroundOutline=1;labelBackgroundColor=none;flipH=1;flipV=1;shadow=0;labelBorderColor=none;fillColor=#333333;" parent="1" vertex="1">
                    <mxGeometry x="40" y="-400" width="215" height="58" as="geometry"/>
                </mxCell>
                <mxCell id="90" value="no" style="edgeStyle=none;html=1;labelBackgroundColor=none;shadow=0;labelBorderColor=none;fillColor=#333333;" parent="1" source="87" target="88" edge="1">
                    <mxGeometry relative="1" as="geometry"/>
                </mxCell>
                <mxCell id="92" value="yes" style="edgeStyle=none;html=1;entryX=0.5;entryY=1;entryDx=0;entryDy=0;entryPerimeter=0;labelBackgroundColor=none;shadow=0;labelBorderColor=none;fillColor=#333333;" parent="1" source="87" target="89" edge="1">
                    <mxGeometry relative="1" as="geometry">
                        <Array as="points">
                            <mxPoint x="366" y="-240"/>
                        </Array>
                    </mxGeometry>
                </mxCell>
                <mxCell id="87" value="&lt;div style=&quot;font-family: Menlo, Monaco, &amp;quot;Courier New&amp;quot;, monospace; font-weight: normal; font-size: 12px; line-height: 18px;&quot;&gt;&lt;span style=&quot;color: #cccccc;&quot;&gt;&lt;/span&gt;&lt;div style=&quot;line-height: 18px;&quot;&gt; &lt;span style=&quot;color: rgb(197, 134, 192);&quot;&gt;if(&lt;/span&gt;&lt;/div&gt;&lt;div style=&quot;line-height: 18px;&quot;&gt;&lt;span style=&quot;color: rgb(156, 220, 254);&quot;&gt;fontdata-&amp;gt;&lt;/span&gt;&lt;font style=&quot;&quot; color=&quot;#dcdcaa&quot;&gt;free&lt;/font&gt;&lt;span style=&quot;color: rgb(220, 220, 170);&quot;&gt;()&lt;/span&gt;&lt;br&gt;&lt;/div&gt;&lt;div style=&quot;line-height: 18px;&quot;&gt;&lt;span style=&quot;color: rgb(212, 212, 212);&quot;&gt;!=&lt;/span&gt; &lt;span style=&quot;color: rgb(79, 193, 255);&quot;&gt;SUCCESS&lt;/span&gt;&lt;/div&gt;&lt;div style=&quot;line-height: 18px;&quot;&gt;&lt;span style=&quot;color: rgb(197, 134, 192);&quot;&gt;)&lt;/span&gt;&lt;/div&gt;&lt;/div&gt;" style="rhombus;whiteSpace=wrap;html=1;labelBackgroundColor=none;flipH=1;flipV=1;shadow=0;labelBorderColor=none;fillColor=#333333;" parent="1" vertex="1">
                    <mxGeometry x="63.75" y="-310" width="167.5" height="140" as="geometry"/>
                </mxCell>
                <mxCell id="88" value="&lt;div style=&quot;color: rgb(204, 204, 204); font-family: Menlo, Monaco, &amp;quot;Courier New&amp;quot;, monospace; line-height: 18px;&quot;&gt;&lt;div style=&quot;line-height: 18px;&quot;&gt;&lt;span style=&quot;color: #c586c0;&quot;&gt;return&lt;/span&gt; &lt;span style=&quot;color: #b5cea8;&quot;&gt;0&lt;/span&gt;&lt;/div&gt;&lt;/div&gt;" style="strokeWidth=2;html=1;shape=mxgraph.flowchart.terminator;whiteSpace=wrap;labelBackgroundColor=none;flipH=1;flipV=1;shadow=0;labelBorderColor=none;fillColor=#333333;" parent="1" vertex="1">
                    <mxGeometry x="92.5" y="-130" width="110" height="50" as="geometry"/>
                </mxCell>
                <mxCell id="89" value="&lt;div style=&quot;color: rgb(204, 204, 204); font-family: Menlo, Monaco, &amp;quot;Courier New&amp;quot;, monospace; line-height: 18px;&quot;&gt;&lt;div style=&quot;line-height: 18px;&quot;&gt;&lt;div style=&quot;line-height: 18px;&quot;&gt;&lt;span style=&quot;color: #dcdcaa;&quot;&gt;exit&lt;/span&gt;(&lt;span style=&quot;color: #569cd6;&quot;&gt;EXIT_FAILURE&lt;/span&gt;)&lt;/div&gt;&lt;/div&gt;&lt;/div&gt;" style="strokeWidth=2;html=1;shape=mxgraph.flowchart.terminator;whiteSpace=wrap;labelBackgroundColor=none;flipH=1;flipV=1;shadow=0;labelBorderColor=none;fillColor=#333333;" parent="1" vertex="1">
                    <mxGeometry x="285" y="-130" width="161.87" height="50" as="geometry"/>
                </mxCell>
                <mxCell id="101" value="&lt;font style=&quot;font-size: 30px;&quot;&gt;Main.c&lt;/font&gt;" style="text;html=1;strokeColor=none;fillColor=none;align=center;verticalAlign=middle;whiteSpace=wrap;rounded=0;strokeWidth=4;" vertex="1" parent="1">
                    <mxGeometry x="794" y="-2275" width="60" height="30" as="geometry"/>
                </mxCell>
            </root>
        </mxGraphModel>
    </diagram>
</mxfile>